<?xml version="1.0" encoding="utf-8"?>
<!-- Generator: Adobe Illustrator 25.0.1, SVG Export Plug-In . SVG Version: 6.00 Build 0)  -->
<svg version="1.1" id="Layer_1" xmlns="http://www.w3.org/2000/svg" xmlns:xlink="http://www.w3.org/1999/xlink" x="0px" y="0px"
	 viewBox="0 0 99.8 70.5" style="enable-background:new 0 0 99.8 70.5;" xml:space="preserve">
<style type="text/css">
	.st0{fill:#00000;}
</style>
<path class="st0" d="M67.2,1.3c-1.3-1.5-3.5-1.7-5-0.5s-1.7,3.5-0.5,5C61.9,6,62,6.1,62.2,6.3l25.5,25.5H3.4c-2,0.1-3.5,1.8-3.4,3.7
	c0.1,1.8,1.5,3.3,3.4,3.4h84.3L62.1,64.4c-1.3,1.4-1.3,3.6,0,5c1.4,1.4,3.6,1.4,5,0c0,0,0,0,0,0l31.6-31.6c1.4-1.3,1.4-3.5,0.1-4.9
	c0,0-0.1-0.1-0.1-0.1L67.2,1.3z"/>
</svg>
